%TF.GenerationSoftware,KiCad,Pcbnew,7.0.9*%
%TF.CreationDate,2023-12-13T15:21:18+08:00*%
%TF.ProjectId,drawing,64726177-696e-4672-9e6b-696361645f70,rev?*%
%TF.SameCoordinates,Original*%
%TF.FileFunction,Legend,Top*%
%TF.FilePolarity,Positive*%
%FSLAX46Y46*%
G04 Gerber Fmt 4.6, Leading zero omitted, Abs format (unit mm)*
G04 Created by KiCad (PCBNEW 7.0.9) date 2023-12-13 15:21:18*
%MOMM*%
%LPD*%
G01*
G04 APERTURE LIST*
%ADD10C,0.010000*%
G04 APERTURE END LIST*
%TO.C,G\u002A\u002A\u002A*%
D10*
X181767961Y-107811037D02*
X182077353Y-107891732D01*
X182378507Y-108013213D01*
X182389716Y-108018617D01*
X182585449Y-108122998D01*
X182759137Y-108237780D01*
X182926415Y-108373936D01*
X183021489Y-108462042D01*
X183177895Y-108621859D01*
X183306339Y-108775928D01*
X183416754Y-108937367D01*
X183518501Y-109118176D01*
X183646740Y-109410768D01*
X183736033Y-109714451D01*
X183786598Y-110025074D01*
X183798648Y-110338483D01*
X183772399Y-110650523D01*
X183708067Y-110957042D01*
X183605867Y-111253887D01*
X183466014Y-111536903D01*
X183386454Y-111665293D01*
X183195588Y-111915181D01*
X182973614Y-112139048D01*
X182724795Y-112334130D01*
X182453394Y-112497664D01*
X182163676Y-112626889D01*
X181859902Y-112719040D01*
X181714902Y-112748516D01*
X181564365Y-112766912D01*
X181389438Y-112776378D01*
X181205751Y-112776946D01*
X181028937Y-112768646D01*
X180874625Y-112751510D01*
X180846604Y-112746802D01*
X180537093Y-112670379D01*
X180246220Y-112557973D01*
X179975930Y-112412508D01*
X179728167Y-112236905D01*
X179504876Y-112034084D01*
X179308003Y-111806968D01*
X179139492Y-111558478D01*
X179001286Y-111291536D01*
X178895333Y-111009063D01*
X178823575Y-110713981D01*
X178787958Y-110409211D01*
X178790426Y-110097675D01*
X178832925Y-109782294D01*
X178842572Y-109736210D01*
X178931682Y-109425572D01*
X179057964Y-109132737D01*
X179219143Y-108860577D01*
X179412947Y-108611961D01*
X179637103Y-108389760D01*
X179889339Y-108196847D01*
X180167380Y-108036090D01*
X180201890Y-108019326D01*
X180507703Y-107896103D01*
X180820201Y-107813662D01*
X181136400Y-107772003D01*
X181453315Y-107771128D01*
X181767961Y-107811037D01*
G36*
X181767961Y-107811037D02*
G01*
X182077353Y-107891732D01*
X182378507Y-108013213D01*
X182389716Y-108018617D01*
X182585449Y-108122998D01*
X182759137Y-108237780D01*
X182926415Y-108373936D01*
X183021489Y-108462042D01*
X183177895Y-108621859D01*
X183306339Y-108775928D01*
X183416754Y-108937367D01*
X183518501Y-109118176D01*
X183646740Y-109410768D01*
X183736033Y-109714451D01*
X183786598Y-110025074D01*
X183798648Y-110338483D01*
X183772399Y-110650523D01*
X183708067Y-110957042D01*
X183605867Y-111253887D01*
X183466014Y-111536903D01*
X183386454Y-111665293D01*
X183195588Y-111915181D01*
X182973614Y-112139048D01*
X182724795Y-112334130D01*
X182453394Y-112497664D01*
X182163676Y-112626889D01*
X181859902Y-112719040D01*
X181714902Y-112748516D01*
X181564365Y-112766912D01*
X181389438Y-112776378D01*
X181205751Y-112776946D01*
X181028937Y-112768646D01*
X180874625Y-112751510D01*
X180846604Y-112746802D01*
X180537093Y-112670379D01*
X180246220Y-112557973D01*
X179975930Y-112412508D01*
X179728167Y-112236905D01*
X179504876Y-112034084D01*
X179308003Y-111806968D01*
X179139492Y-111558478D01*
X179001286Y-111291536D01*
X178895333Y-111009063D01*
X178823575Y-110713981D01*
X178787958Y-110409211D01*
X178790426Y-110097675D01*
X178832925Y-109782294D01*
X178842572Y-109736210D01*
X178931682Y-109425572D01*
X179057964Y-109132737D01*
X179219143Y-108860577D01*
X179412947Y-108611961D01*
X179637103Y-108389760D01*
X179889339Y-108196847D01*
X180167380Y-108036090D01*
X180201890Y-108019326D01*
X180507703Y-107896103D01*
X180820201Y-107813662D01*
X181136400Y-107772003D01*
X181453315Y-107771128D01*
X181767961Y-107811037D01*
G37*
%TD*%
M02*
